<?xml version="1.0" standalone="no"?><svg xmlns="http://www.w3.org/2000/svg" viewBox="0 0 1440 320"><path fill="#5a281e" fill-opacity="1" d="M0,128L40,144C80,160,160,192,240,208C320,224,400,224,480,192C560,160,640,96,720,85.3C800,75,880,117,960,154.7C1040,192,1120,224,1200,213.3C1280,203,1360,149,1400,122.7L1440,96L1440,320L1400,320C1360,320,1280,320,1200,320C1120,320,1040,320,960,320C880,320,800,320,720,320C640,320,560,320,480,320C400,320,320,320,240,320C160,320,80,320,40,320L0,320Z"></path></svg>